<svg fill="none" xmlns="http://www.w3.org/2000/svg">
<!-- read-easy  -->
<style>
g{display:none}
g:target{display:inline}
</style>
<defs>

<!-- site logo color / hover - fill   -->
<symbol id="logo" viewBox="0 0 24 24">
<path d="M0 0L12.2571 12.1286L24 24V0H0Z" fill="#F6F6F6"/>
<path d="M3.34277 3.17145L12.2999 12.0429L20.7428 20.6572H3.34277V3.17145Z" fill="#F6F6F6"/>
<path d="M20.7997 20.7137L11.8425 11.8423L3.39966 3.22797H20.7997V20.7137Z" fill="#4F2EE8"/>
<path d="M6.94287 6.77142L11.7 11.5286L17.1429 16.9714H6.94287V6.77142Z" fill="#4F2EE8"/>
<path d="M6.94287 6.77142L11.7 11.5286L17.1429 16.9714V6.77142H6.94287Z" fill="#F6F6F6"/>
</symbol>

<!-- bookshelf color / hover - fill    -->
<symbol id="bookshelf" viewBox="0 0 78 14">
<path d="M9.702 3.73301C9.702 1.663 8.172 0.493005 5.526 0.493005H0V13.363H5.832C8.496 13.363 10.206 12.085 10.206 9.60101C10.206 7.67501 9.054 6.68501 7.704 6.45101V6.41501C8.766 6.05501 9.702 5.31701 9.702 3.73301ZM2.142 5.821V2.31101H5.58C6.858 2.31101 7.56 2.941 7.56 4.07501C7.56 5.20901 6.984 5.821 5.454 5.821H2.142ZM2.142 7.42301H5.904C7.254 7.42301 8.064 8.16101 8.064 9.47501C8.064 10.681 7.506 11.545 5.67 11.545H2.142V7.42301Z"/>
<path d="M15.7018 13.633C12.8218 13.633 11.0758 11.635 11.0758 8.77301C11.0758 5.91101 12.8218 3.913 15.7018 3.913C18.5818 3.913 20.3278 5.91101 20.3278 8.77301C20.3278 11.635 18.5818 13.633 15.7018 13.633ZM15.7018 12.085C17.5018 12.085 18.4378 10.663 18.4378 8.77301C18.4378 6.86501 17.5018 5.46101 15.7018 5.46101C13.9018 5.46101 12.9658 6.86501 12.9658 8.77301C12.9658 10.663 13.9018 12.085 15.7018 12.085Z"/>
<path d="M25.774 13.633C22.894 13.633 21.148 11.635 21.148 8.77301C21.148 5.91101 22.894 3.913 25.774 3.913C28.654 3.913 30.4 5.91101 30.4 8.77301C30.4 11.635 28.654 13.633 25.774 13.633ZM25.774 12.085C27.574 12.085 28.51 10.663 28.51 8.77301C28.51 6.86501 27.574 5.46101 25.774 5.46101C23.974 5.46101 23.038 6.86501 23.038 8.77301C23.038 10.663 23.974 12.085 25.774 12.085Z"/>
<path d="M31.7063 0.493005V13.363H33.5963V10.033L34.8743 8.82701L37.7723 13.363H40.0403L36.1703 7.58501L39.6623 4.165H37.3403L33.5963 7.85501V0.493005H31.7063Z"/>
<path d="M44.5964 7.80101C43.2644 7.49501 42.2384 7.42301 42.2384 6.48701C42.2384 5.83901 42.8504 5.40701 43.9844 5.40701C45.4604 5.40701 45.8204 6.14501 45.9464 6.86501H47.7824C47.6564 5.26301 46.4684 3.913 43.9664 3.913C41.6624 3.913 40.3304 5.11901 40.3304 6.63101C40.3304 8.71901 42.3104 9.00701 43.7684 9.34901C45.1184 9.67301 46.2164 9.76301 46.2164 10.915C46.2164 11.491 45.6584 12.139 44.3444 12.139C42.4004 12.139 41.9684 11.293 41.8784 10.303H40.0424C40.1324 12.247 41.4104 13.633 44.3804 13.633C46.6124 13.633 48.1244 12.535 48.1244 10.771C48.1244 8.57501 46.2884 8.19701 44.5964 7.80101Z"/>
<path d="M54.3039 3.913C52.7559 3.913 51.8019 4.63301 51.3159 5.35301H51.2799V0.493005H49.3899V13.363H51.2799V7.76501C51.2799 6.39701 52.2699 5.51501 53.6559 5.51501C54.9699 5.51501 55.4919 6.30701 55.4919 7.54901V13.363H57.3999V7.00901C57.3999 4.90301 56.0499 3.913 54.3039 3.913Z"/>
<path d="M63.1962 12.085C61.5222 12.085 60.5322 10.807 60.5322 9.25901H67.5882C67.5882 5.98301 66.1302 3.913 63.1602 3.913C60.3882 3.913 58.6422 5.78501 58.6422 8.77301C58.6422 11.653 60.3882 13.633 63.2502 13.633C65.6082 13.633 66.9762 12.301 67.4442 10.555H65.5542C65.3922 11.113 64.7622 12.085 63.1962 12.085ZM63.1602 5.40701C64.6902 5.40701 65.6982 6.43301 65.6982 7.85501H60.5322C60.5322 6.43301 61.6302 5.40701 63.1602 5.40701Z"/>
<path d="M68.92 0.493005V13.363H70.828V0.493005H68.92Z"/>
<path d="M77.0013 2.04101V0.493005C76.6233 0.421005 76.2093 0.367004 75.7413 0.367004C74.2293 0.367004 73.4013 1.05101 73.4013 2.99501V4.165H72.0873V5.71301H73.4013V13.363H75.3093V5.71301H77.0013V4.165H75.3093V3.15701C75.3093 2.11301 75.7773 1.98701 77.0013 2.04101Z"/>
</symbol>

<!-- burger menu.color /  stroke, hover -  stroke-opacity: 0.5;   -->
<symbol id="menu" viewBox="0 0 28 28">
<path d="M19.8333 11.6667H3.5" stroke-width="2" stroke-linecap="round" stroke-linejoin="round"/>
<path d="M24.5 7H3.5" stroke-width="2" stroke-linecap="round" stroke-linejoin="round"/>
<path d="M24.5 16.3333H3.5" stroke-width="2" stroke-linecap="round" stroke-linejoin="round"/>
<path d="M19.8333 21H3.5" stroke-width="2" stroke-linecap="round" stroke-linejoin="round"/>
</symbol>

<!-- close button. color - stroke, hover -  stroke-opacity: 0.5;    -->
<symbol id="close" viewBox="0 0 28 28">
<path d="M21 7L7 21M7 7L21 21" stroke-width="3" stroke-linecap="round" stroke-linejoin="round"/>
</symbol>

<!-- trash button. color - stroke, hover -  stroke-opacity: 0.5;    -->
<symbol id="trash" viewBox="0 0 22 22">
<path id="Icon" d="M8.25 2.75H13.75M2.75 5.5H19.25M17.4167 5.5L16.7738 15.1427C16.6774 16.5894 16.6291 17.3128 16.3167 17.8613C16.0416 18.3441 15.6266 18.7323 15.1265 18.9747C14.5585 19.25 13.8335 19.25 12.3836 19.25H9.61643C8.1665 19.25 7.44153 19.25 6.87348 18.9747C6.37336 18.7323 5.95841 18.3441 5.68332 17.8613C5.37085 17.3128 5.32263 16.5894 5.22618 15.1427L4.58333 5.5M9.16667 9.625V14.2083M12.8333 9.625V14.2083" stroke="white" stroke-width="2" stroke-linecap="round" stroke-linejoin="round"/>
</symbol>

<!-- mail button. color - stroke, hover -  stroke-opacity: 0.5;    -->
<symbol id="mail" viewBox="0 0 28 28">
<path d="M25.0832 21L17.3333 14M10.6666 14L2.91663 21M2.33325 8.16669L11.859 14.8347C12.6304 15.3747 13.016 15.6446 13.4356 15.7492C13.8061 15.8416 14.1937 15.8416 14.5643 15.7492C14.9838 15.6446 15.3695 15.3747 16.1408 14.8347L25.6666 8.16669M7.93325 23.3334H20.0666C22.0268 23.3334 23.0069 23.3334 23.7556 22.9519C24.4141 22.6163 24.9496 22.0809 25.2851 21.4223C25.6666 20.6736 25.6666 19.6935 25.6666 17.7334V10.2667C25.6666 8.3065 25.6666 7.32641 25.2851 6.57772C24.9496 5.91915 24.4141 5.38372 23.7556 5.04816C23.0069 4.66669 22.0268 4.66669 20.0666 4.66669H7.93325C5.97307 4.66669 4.99298 4.66669 4.24429 5.04816C3.58572 5.38372 3.05029 5.91915 2.71473 6.57772C2.33325 7.32641 2.33325 8.3065 2.33325 10.2667V17.7334C2.33325 19.6935 2.33325 20.6736 2.71473 21.4223C3.05029 22.0809 3.58572 22.6163 4.24429 22.9519C4.99298 23.3334 5.97307 23.3334 7.93325 23.3334Z" stroke-width="2" stroke-linecap="round" stroke-linejoin="round"/>
</symbol>

<!-- lock button. color - stroke, hover -  stroke-opacity: 0.5;    -->
<symbol id="lock" viewBox="0 0 28 28">
<path d="M19.8333 12.8333V9.33333C19.8333 6.11167 17.2217 3.5 14 3.5C10.7783 3.5 8.16667 6.11167 8.16667 9.33333V12.8333M9.1 24.5H18.9C20.8602 24.5 21.8403 24.5 22.589 24.1185C23.2475 23.783 23.783 23.2475 24.1185 22.589C24.5 21.8403 24.5 20.8602 24.5 18.9V18.4333C24.5 16.4731 24.5 15.4931 24.1185 14.7444C23.783 14.0858 23.2475 13.5504 22.589 13.2148C21.8403 12.8333 20.8602 12.8333 18.9 12.8333H9.1C7.13982 12.8333 6.15972 12.8333 5.41103 13.2148C4.75247 13.5504 4.21703 14.0858 3.88148 14.7444C3.5 15.4931 3.5 16.4731 3.5 18.4333V18.9C3.5 20.8602 3.5 21.8403 3.88148 22.589C4.21703 23.2475 4.75247 23.783 5.41103 24.1185C6.15972 24.5 7.13982 24.5 9.1 24.5Z" stroke-width="2" stroke-linecap="round" stroke-linejoin="round"/>
</symbol>                                       	

<!-- user color / hover - fill   -->
<symbol id="user" viewBox="0 0 37 37">
<circle cx="18.5" cy="18.5" r="18.5"/>
<path d="M12.1667 26.4167C12.1667 24.737 12.834 23.1261 14.0217 21.9383C15.2095 20.7506 16.8204 20.0834 18.5001 20.0834C20.1798 20.0834 21.7907 20.7506 22.9784 21.9383C24.1662 23.1261 24.8334 24.737 24.8334 26.4167H12.1667ZM18.5001 19.2917C15.8757 19.2917 13.7501 17.1661 13.7501 14.5417C13.7501 11.9173 15.8757 9.79169 18.5001 9.79169C21.1245 9.79169 23.2501 11.9173 23.2501 14.5417C23.2501 17.1661 21.1245 19.2917 18.5001 19.2917Z" fill="#4F2EE8"/>
</symbol>

<!-- cart color / hover - fill   -->
<symbol id="cart" viewBox="0 0 20 20">
<path d="M15.8333 5.83329H13.3333V4.99996C13.3333 4.1159 12.9821 3.26806 12.357 2.64294C11.7319 2.01782 10.884 1.66663 9.99999 1.66663C9.11594 1.66663 8.26809 2.01782 7.64297 2.64294C7.01785 3.26806 6.66666 4.1159 6.66666 4.99996V5.83329H4.16666C3.94565 5.83329 3.73369 5.92109 3.57741 6.07737C3.42113 6.23365 3.33333 6.44561 3.33333 6.66663V15.8333C3.33333 16.4963 3.59672 17.1322 4.06556 17.6011C4.5344 18.0699 5.17029 18.3333 5.83333 18.3333H14.1667C14.8297 18.3333 15.4656 18.0699 15.9344 17.6011C16.4033 17.1322 16.6667 16.4963 16.6667 15.8333V6.66663C16.6667 6.44561 16.5789 6.23365 16.4226 6.07737C16.2663 5.92109 16.0543 5.83329 15.8333 5.83329ZM8.33333 4.99996C8.33333 4.55793 8.50892 4.13401 8.82148 3.82145C9.13404 3.50889 9.55796 3.33329 9.99999 3.33329C10.442 3.33329 10.8659 3.50889 11.1785 3.82145C11.4911 4.13401 11.6667 4.55793 11.6667 4.99996V5.83329H8.33333V4.99996ZM15 15.8333C15 16.0543 14.9122 16.2663 14.7559 16.4225C14.5996 16.5788 14.3877 16.6666 14.1667 16.6666H5.83333C5.61231 16.6666 5.40035 16.5788 5.24407 16.4225C5.08779 16.2663 4.99999 16.0543 4.99999 15.8333V7.49996H6.66666V8.33329C6.66666 8.55431 6.75446 8.76627 6.91074 8.92255C7.06702 9.07883 7.27898 9.16662 7.49999 9.16662C7.72101 9.16662 7.93297 9.07883 8.08925 8.92255C8.24553 8.76627 8.33333 8.55431 8.33333 8.33329V7.49996H11.6667V8.33329C11.6667 8.55431 11.7545 8.76627 11.9107 8.92255C12.067 9.07883 12.279 9.16662 12.5 9.16662C12.721 9.16662 12.933 9.07883 13.0892 8.92255C13.2455 8.76627 13.3333 8.55431 13.3333 8.33329V7.49996H15V15.8333Z"/>
</symbol>

<!-- loginout color - stroke  stroke="#EAC645", hover -  stroke-opacity: 0.5;    -->
<symbol id="loginout" viewBox="0 0 20 20"> 	
<path d="M3.33325 10H16.6666M16.6666 10L11.6666 5M16.6666 10L11.6666 15" stroke-width="2" stroke-linecap="round" stroke-linejoin="round"/>
</symbol>

<!-- tryzub color / hover - fill   -->
<symbol id="tryzub" viewBox="0 0 20 32">
<path d="M9.00548 30.8877C7.26703 29.6252 6.0141 27.7313 5.59123 25.5369H0V2.41992C2.99139 3.86285 5.1527 7.01926 5.38763 10.2959L6.23336 16.7891L5.82615 16.744C4.93344 16.744 4.15035 17.5557 4.15035 18.3523C4.15035 19.1038 4.7455 19.7351 5.52858 19.9004L6.54659 20.1259C8.2224 17.0747 9.17776 14.0836 9.17776 11.1527C9.17776 8.50728 8.81754 5.86191 8.75489 3.15641C8.75489 1.95397 9.24041 0.85674 10.0078 0C10.7909 0.85674 11.2608 1.95397 11.2608 3.15641C11.2608 5.86191 10.8379 8.50728 10.8379 11.1527C10.8379 14.0836 11.7933 17.0747 13.4691 20.1259L14.4871 19.9004C15.2702 19.7351 15.8653 19.0888 15.8653 18.3523C15.8653 17.5406 15.0822 16.744 14.1895 16.744L13.7666 16.8041L14.6124 10.3109C15.0352 7.03429 17.0086 3.86285 20 2.43495V25.5519H14.4244C14.0016 27.7313 12.8113 29.7003 11.0102 30.9028C10.5873 31.1884 10.2271 31.5341 9.99217 32C9.77291 31.5341 9.41269 31.1884 9.00548 30.8877ZM2.64683 17.5557C2.88175 16.6989 3.53955 15.9474 4.38528 15.4814L3.72749 10.1306C3.49256 8.46219 2.77212 6.97417 1.69146 5.75669V17.5406H2.64683V17.5557ZM5.46593 23.9286C5.46593 23.117 5.59123 22.3805 5.76351 21.6289L4.98042 21.4486C3.83712 21.1029 2.9444 20.2461 2.64683 19.1489H1.69146V23.9286H5.46593ZM9.17776 23.9286C9.17776 22.9516 8.39467 22.0949 7.37666 21.9746C7.20438 22.6059 7.07909 23.2372 7.07909 23.9286H9.17776ZM9.17776 25.5519H7.31402C7.61159 26.8145 8.26938 27.9718 9.17776 28.9488V25.5519ZM11.8089 20.5467C11.0885 19.2842 10.4307 17.9615 10.0078 16.5787C9.58496 17.9615 8.92717 19.2842 8.20673 20.5467C8.92717 20.7121 9.52232 21.178 10.0078 21.7041C10.4933 21.178 11.0885 20.7121 11.8089 20.5467ZM12.9522 23.9286C12.9522 23.2372 12.8269 22.6059 12.6547 21.9746C11.6366 22.0949 10.8536 22.9516 10.8536 23.9286H12.9522ZM12.7173 25.5519H10.8536V28.9488C11.7619 27.9568 12.4197 26.8145 12.7173 25.5519ZM18.3399 23.9286V19.1489H17.3845C17.0869 20.2461 16.1785 21.1029 15.0509 21.4486L14.2678 21.6289C14.4401 22.3805 14.5654 23.117 14.5654 23.9286H18.3399ZM18.3399 17.5557V5.75669C17.2592 6.95914 16.4761 8.46219 16.3038 10.1306L15.646 15.4814C16.4918 15.9474 17.1496 16.6839 17.3845 17.5557H18.3399Z" fill="white"/>
</symbol>

<!-- gotop color / hover - fill   -->
<symbol id="gotop" viewBox="0 0 24 24">
<path d="M3.37495 14.7L11.775 6.275C11.875 6.175 11.9833 6.10433 12.0999 6.063C12.2166 6.021 12.3416 6 12.4749 6C12.6083 6 12.7333 6.021 12.8499 6.063C12.9666 6.10433 13.075 6.175 13.175 6.275L21.6 14.7C21.8333 14.9333 21.95 15.225 21.95 15.575C21.95 15.925 21.825 16.225 21.575 16.475C21.325 16.725 21.0333 16.85 20.7 16.85C20.3666 16.85 20.075 16.725 19.825 16.475L12.4749 9.125L5.12495 16.475C4.89161 16.7083 4.60428 16.825 4.26295 16.825C3.92095 16.825 3.62495 16.7 3.37495 16.45C3.12495 16.2 2.99995 15.9083 2.99995 15.575C2.99995 15.2417 3.12495 14.95 3.37495 14.7Z" fill="#FFFFFF"/>
</symbol>

<!-- 2top color / hover - fill   -->
<symbol id="2top" viewBox="0 0 24 24">
<path d="M17.9998 15.4999C17.8682 15.5007 17.7377 15.4755 17.6159 15.4257C17.494 15.3759 17.3832 15.3026 17.2898 15.2099L12.7098 10.6199C12.6168 10.5262 12.5062 10.4518 12.3844 10.401C12.2625 10.3503 12.1318 10.3241 11.9998 10.3241C11.8678 10.3241 11.7371 10.3503 11.6152 10.401C11.4934 10.4518 11.3828 10.5262 11.2898 10.6199L6.70979 15.2099C6.52149 15.3982 6.26609 15.504 5.99979 15.504C5.73349 15.504 5.47809 15.3982 5.28979 15.2099C5.10149 15.0216 4.9957 14.7662 4.9957 14.4999C4.9957 14.3681 5.02167 14.2375 5.07213 14.1157C5.12259 13.9939 5.19655 13.8832 5.28979 13.7899L9.87979 9.20994C10.4497 8.66237 11.2094 8.35657 11.9998 8.35657C12.7901 8.35657 13.5498 8.66237 14.1198 9.20994L18.7098 13.7899C18.8035 13.8829 18.8779 13.9935 18.9287 14.1154C18.9794 14.2372 19.0056 14.3679 19.0056 14.4999C19.0056 14.6319 18.9794 14.7626 18.9287 14.8845C18.8779 15.0064 18.8035 15.117 18.7098 15.2099C18.6163 15.3026 18.5055 15.3759 18.3837 15.4257C18.2619 15.4755 18.1314 15.5007 17.9998 15.4999Z"/>
</symbol>

<!-- 2bottom color / hover - fill   -->
<symbol id="2bottom" viewBox="0 0 24 24">
<path d="M18.7099 8.20998C18.6169 8.11625 18.5063 8.04186 18.3845 7.99109C18.2626 7.94032 18.1319 7.91418 17.9999 7.91418C17.8679 7.91418 17.7372 7.94032 17.6153 7.99109C17.4934 8.04186 17.3828 8.11625 17.2899 8.20998L12.7099 12.79C12.6169 12.8837 12.5063 12.9581 12.3845 13.0089C12.2626 13.0596 12.1319 13.0858 11.9999 13.0858C11.8679 13.0858 11.7372 13.0596 11.6153 13.0089C11.4934 12.9581 11.3828 12.8837 11.2899 12.79L6.70988 8.20998C6.61691 8.11625 6.50631 8.04186 6.38445 7.99109C6.26259 7.94032 6.13189 7.91418 5.99988 7.91418C5.86787 7.91418 5.73716 7.94032 5.6153 7.99109C5.49344 8.04186 5.38284 8.11625 5.28988 8.20998C5.10363 8.39734 4.99908 8.6508 4.99908 8.91498C4.99908 9.17917 5.10363 9.43262 5.28988 9.61998L9.87988 14.21C10.4424 14.7718 11.2049 15.0873 11.9999 15.0873C12.7949 15.0873 13.5574 14.7718 14.1199 14.21L18.7099 9.61998C18.8961 9.43262 19.0007 9.17917 19.0007 8.91498C19.0007 8.6508 18.8961 8.39734 18.7099 8.20998Z"/>
</symbol>                       	

<!-- ddown color / hover - fill   -->
<symbol id="ddown" viewBox="0 0 23 26">
<path d="M4.79175 9.75H18.2084L12.1776 16.5674C11.9979 16.7705 11.7542 16.8846 11.5001 16.8846C11.246 16.8846 11.0023 16.7705 10.8225 16.5674L4.79175 9.75Z" fill="#FFFFFF"/>
</symbol>                       	

<symbol id="icon-align-left" viewBox="0 0 32 32">
<path stroke-linejoin="round" stroke-linecap="round" stroke-miterlimit="4" stroke-width="2.2857" d="M22.667 13.333h-18.667"></path>
<path stroke-linejoin="round" stroke-linecap="round" stroke-miterlimit="4" stroke-width="2.2857" d="M28 8h-24"></path>
<path stroke-linejoin="round" stroke-linecap="round" stroke-miterlimit="4" stroke-width="2.2857" d="M28 18.667h-24"></path>
<path stroke-linejoin="round" stroke-linecap="round" stroke-miterlimit="4" stroke-width="2.2857" d="M22.667 24h-18.667"></path>
</symbol>

</defs>
</svg>
